<svg xmlns="http://www.w3.org/2000/svg" xmlns:xlink="http://www.w3.org/1999/xlink" width="500" zoomAndPan="magnify" viewBox="0 0 375 374.999991" height="500" preserveAspectRatio="xMidYMid meet" version="1.0"><defs><clipPath id="7642763c22"><path d="M 0.765625 1.066406 L 293 1.066406 L 293 289.933594 L 0.765625 289.933594 Z M 0.765625 1.066406 " clip-rule="nonzero"/></clipPath><clipPath id="6ad901dbf2"><path d="M 18.015625 1.066406 L 274.984375 1.066406 C 284.511719 1.066406 292.234375 8.789062 292.234375 18.316406 L 292.234375 272.683594 C 292.234375 282.210938 284.511719 289.933594 274.984375 289.933594 L 18.015625 289.933594 C 8.488281 289.933594 0.765625 282.210938 0.765625 272.683594 L 0.765625 18.316406 C 0.765625 8.789062 8.488281 1.066406 18.015625 1.066406 Z M 18.015625 1.066406 " clip-rule="nonzero"/></clipPath><clipPath id="10ffe52e45"><path d="M 0.765625 0.0664062 L 292 0.0664062 L 292 288.933594 L 0.765625 288.933594 Z M 0.765625 0.0664062 " clip-rule="nonzero"/></clipPath><clipPath id="d8e362000c"><path d="M 18.015625 0.0664062 L 274.984375 0.0664062 C 284.511719 0.0664062 292.234375 7.789062 292.234375 17.316406 L 292.234375 271.683594 C 292.234375 281.210938 284.511719 288.933594 274.984375 288.933594 L 18.015625 288.933594 C 8.488281 288.933594 0.765625 281.210938 0.765625 271.683594 L 0.765625 17.316406 C 0.765625 7.789062 8.488281 0.0664062 18.015625 0.0664062 Z M 18.015625 0.0664062 " clip-rule="nonzero"/></clipPath><clipPath id="9038894376"><rect x="0" width="293" y="0" height="289"/></clipPath><clipPath id="7ff4b19cd4"><path d="M 53.894531 14.347656 L 270.789062 14.347656 L 270.789062 265.941406 L 53.894531 265.941406 Z M 53.894531 14.347656 " clip-rule="nonzero"/></clipPath><clipPath id="c61fd53d3b"><rect x="0" width="294" y="0" height="291"/></clipPath></defs><rect x="-37.5" width="450" fill="#ffffff" y="-37.499999" height="449.999989" fill-opacity="1"/><rect x="-37.5" width="450" fill="#ffffff" y="-37.499999" height="449.999989" fill-opacity="1"/><g transform="matrix(1, 0, 0, 1, 41, 42)"><g clip-path="url(#c61fd53d3b)"><g clip-path="url(#7642763c22)"><g clip-path="url(#6ad901dbf2)"><g transform="matrix(1, 0, 0, 1, 0, 1)"><g clip-path="url(#9038894376)"><g clip-path="url(#10ffe52e45)"><g clip-path="url(#d8e362000c)"><path fill="#000000" d="M 0.765625 0.0664062 L 291.886719 0.0664062 L 291.886719 288.933594 L 0.765625 288.933594 Z M 0.765625 0.0664062 " fill-opacity="1" fill-rule="nonzero"/></g></g></g></g></g></g><g clip-path="url(#7ff4b19cd4)"><path fill="#ffffff" d="M 271.78125 140.15625 L 53.917969 265.941406 L 116.925781 140.15625 L 53.917969 14.367188 Z M 271.78125 140.15625 " fill-opacity="1" fill-rule="evenodd"/></g><path fill="#000000" d="M 46.445312 120.75 C 63.527344 128.074219 65.777344 129.097656 83.066406 136.519531 C 84.011719 136.9375 84.753906 137.261719 85.433594 137.597656 C 86.621094 138.238281 87.242188 138.84375 88.40625 137.238281 C 88.800781 136.839844 89.488281 136.472656 89.941406 135.710938 C 131.308594 97.367188 162.445312 67.367188 203.8125 29.023438 C 211.089844 21.6875 226.171875 27.101562 219.433594 35.152344 C 176.949219 84.554688 149.039062 118.234375 128.382812 145.5625 C 119.550781 157.214844 112.003906 167.714844 105.222656 177.765625 C 100.769531 184.242188 96.699219 190.53125 92.925781 196.820312 C 91.832031 198.726562 90.917969 200.0625 89.496094 201.140625 C 87.273438 202.722656 84.828125 202.894531 82.429688 201.570312 C 81.527344 200.980469 80.652344 200.238281 79.769531 199.148438 C 79.238281 198.492188 78.707031 197.644531 78.164062 196.816406 L 65.238281 175.527344 L 50.683594 149.871094 C 46.699219 142.851562 43.507812 137.019531 37.332031 126.339844 C 36.65625 125.332031 34.726562 122.714844 35.289062 120.761719 C 35.773438 118.53125 38.203125 117.320312 40.777344 118.363281 C 43.082031 119.335938 45.390625 120.347656 46.445312 120.75 Z M 46.445312 120.75 " fill-opacity="1" fill-rule="evenodd"/><path fill="#ffffff" d="M 39.78125 120.710938 C 56.007812 127.734375 69.214844 133.367188 85.632812 140.484375 C 86.765625 140.976562 87.914062 141.113281 89.054688 140.117188 C 128.355469 103.351562 166.773438 67.292969 206.074219 30.527344 C 211.226562 25.878906 221.148438 28.730469 217.964844 33.035156 C 148.335938 113.328125 111.738281 160.308594 89.558594 197.40625 C 87.542969 200.792969 83.714844 200.601562 81.636719 197.351562 C 76.75 189.585938 69.367188 177.402344 69.164062 177.09375 C 53.433594 149.636719 52.929688 148.492188 37.914062 122.269531 C 37.207031 120.980469 38.742188 120.042969 39.78125 120.710938 Z M 39.78125 120.710938 " fill-opacity="1" fill-rule="evenodd"/></g></g></svg>